<svg width="246" height="11" viewBox="0 0 246 11" fill="none" xmlns="http://www.w3.org/2000/svg">
<path d="M3 10.5V9H1.5V7.5H0V3H1.5V1.5H3V0H9V1.5H10.5V3H7.5V1.5H4.5V3H3V7.5H4.5V9H7.5V7.5H10.5V9H9V10.5H3ZM33.6 10.5V3H35.1V1.5H36.6V0H41.1V1.5H42.6V3H44.1V10.5H41.1V7.5H36.6V10.5H33.6ZM36.6 6H41.1V3H39.6V1.5H38.1V3H36.6V6ZM67.2 10.5V0H76.2V1.5H77.7V6H74.7V7.5H76.2V9H77.7V10.5H73.2V9H71.7V7.5H70.2V10.5H67.2ZM70.2 6H73.2V4.5H74.7V1.5H70.2V6ZM103.8 10.5V9H102.3V7.5H100.8V3H102.3V1.5H103.8V0H111.3V1.5H105.3V3H103.8V7.5H105.3V9H108.3V6H106.8V4.5H111.3V10.5H103.8ZM134.4 10.5V3H135.9V1.5H137.4V0H141.9V1.5H143.4V3H144.9V10.5H141.9V7.5H137.4V10.5H134.4ZM137.4 6H141.9V3H140.4V1.5H138.9V3H137.4V6ZM168 10.5V0H171V1.5H172.5V3H174V4.5H175.5V0H178.5V10.5H175.5V7.5H174V6H172.5V4.5H171V10.5H168ZM201.6 10.5V0H209.1V1.5H210.6V3H212.1V7.5H210.6V9H209.1V10.5H201.6ZM204.6 9H207.6V7.5H209.1V3H207.6V1.5H204.6V9ZM236.7 10.5V9H235.2V1.5H236.7V0H244.2V1.5H245.7V9H244.2V10.5H236.7ZM238.2 9H242.7V1.5H238.2V9Z" fill="white"/>
</svg>
